<?xml version="1.0" standalone="no"?>
<!DOCTYPE svg PUBLIC "-//W3C//DTD SVG 20010904//EN"
 "http://www.w3.org/TR/2001/REC-SVG-20010904/DTD/svg10.dtd">
<svg version="1.0" xmlns="http://www.w3.org/2000/svg"
 width="241.000000pt" height="200.000000pt" viewBox="0 0 241.000000 200.000000"
 preserveAspectRatio="xMidYMid meet">
<symbol id="spa-logo" viewBox="0 0 241.000000 200.000000">
<g transform="translate(0.000000,200.000000) scale(0.100000,-0.100000)"
fill="#501c65" stroke="none">
<path d="M1153 1712 c-60 -80 -143 -223 -175 -298 -12 -30 -25 -54 -29 -54 -5
0 -36 25 -70 55 -81 72 -182 138 -293 190 -70 33 -93 40 -98 30 -5 -7 -16 -46
-25 -86 -13 -58 -17 -124 -18 -310 l0 -237 -70 -11 c-38 -6 -111 -25 -162 -42
l-91 -30 29 -71 c90 -219 250 -428 412 -538 32 -21 93 -52 136 -69 116 -45
192 -55 350 -46 75 4 161 5 191 4 30 -2 123 -4 205 -3 162 0 209 9 332 65 119
53 270 193 368 339 62 93 145 260 148 295 2 26 -3 29 -68 52 -38 13 -110 32
-160 42 -66 13 -89 22 -86 32 1 8 5 88 8 179 5 167 -8 305 -39 408 l-13 42
-111 -54 c-106 -52 -229 -135 -312 -211 l-39 -35 -43 96 c-56 124 -195 334
-220 334 -3 0 -29 -31 -57 -68z m105 -60 c118 -168 214 -407 231 -572 8 -81
-1 -275 -13 -287 -2 -2 -6 26 -9 61 -9 100 -34 182 -87 291 -43 89 -132 223
-160 240 -14 9 -121 -140 -167 -236 -65 -133 -84 -208 -85 -329 l-1 -105 -14
55 c-49 208 -29 398 69 624 42 96 175 316 192 316 2 0 21 -26 44 -58z m-528
-188 c52 -35 119 -86 149 -113 l54 -50 -18 -68 c-26 -99 -24 -97 -82 -58 -77
52 -211 118 -227 112 -22 -9 -39 -159 -34 -298 4 -103 10 -139 35 -213 34
-101 19 -90 -34 23 -45 95 -69 183 -84 302 -12 100 -7 282 11 384 19 102 13
97 78 68 31 -14 100 -54 152 -89z m1183 94 c34 -145 41 -401 13 -538 -18 -90
-59 -212 -84 -245 -14 -19 -14 -19 -8 5 23 87 36 183 36 258 -1 81 -22 237
-34 250 -11 10 -141 -52 -220 -105 -44 -29 -80 -52 -81 -51 -2 2 -12 39 -23
83 -19 74 -19 81 -3 99 25 28 150 129 201 162 51 32 182 103 191 104 4 0 9
-10 12 -22z m-1434 -650 c45 -152 124 -279 243 -394 98 -94 172 -146 302 -213
52 -27 92 -52 89 -55 -16 -16 -89 -4 -145 24 -213 106 -389 291 -445 468 -17
53 -17 53 -53 47 -72 -12 -160 -38 -160 -48 0 -17 62 -120 118 -194 65 -88
148 -165 234 -216 34 -22 52 -36 38 -32 -105 29 -275 182 -387 350 -42 62
-123 217 -123 234 0 17 178 65 256 70 16 1 24 -8 33 -41z m1587 27 c96 -18
174 -43 174 -56 0 -18 -73 -154 -127 -239 -64 -98 -225 -263 -293 -299 -52
-28 -47 -21 34 40 33 24 87 76 120 115 57 67 156 220 156 241 0 10 -89 36
-161 49 l-37 6 -17 -54 c-26 -82 -90 -183 -166 -263 -117 -123 -299 -235 -381
-235 -68 0 -76 14 -22 35 116 44 286 159 380 257 119 123 174 221 230 406 4
15 15 15 110 -3z m-509 -145 c-7 -107 -46 -240 -100 -344 -33 -64 -50 -85 -82
-103 -22 -13 -45 -23 -52 -23 -6 0 13 39 42 88 92 153 145 294 167 448 11 80
13 84 21 53 5 -19 7 -72 4 -119z m-646 -40 c37 -138 111 -302 177 -388 14 -18
22 -35 19 -38 -3 -4 -25 4 -48 17 -35 20 -50 39 -84 105 -22 44 -51 110 -63
147 -25 76 -46 236 -35 264 7 15 8 15 11 -7 2 -14 12 -59 23 -100z"/>
</g>
</symbol>
</svg>
